<svg width="400" height="400" viewBox="0 0 400 400" fill="none" xmlns="http://www.w3.org/2000/svg">
<rect width="400" height="400" fill="black"/>
<rect x="5" y="5" width="390" height="390" fill="white"/>
<g clip-path="url(#clip0_59_211)">
<path d="M199.844 384.088L95.6616 355.166L72.4451 94.7656H327.555L304.314 355.125L199.844 384.088Z" fill="#264DE4"/>
<path d="M284.417 338.547L304.278 116.057H200V361.95L284.417 338.547Z" fill="#2965F1"/>
<path d="M125.668 212.636L128.531 244.573H200V212.636H125.668Z" fill="#EBEBEB"/>
<path d="M119.917 147.995L122.82 179.932H200V147.995H119.917Z" fill="#EBEBEB"/>
<path d="M200 295.58L199.86 295.618L164.291 286.013L162.018 260.542H129.958L134.432 310.688L199.853 328.849L200 328.808V295.58Z" fill="#EBEBEB"/>
<path d="M132.483 24H171.165V40.1758H148.659V56.3517H171.165V72.5275H132.483V24Z" fill="black"/>
<path d="M178.901 24H217.582V38.0659H195.077V40.8791H217.582V73.2308H178.901V58.4615H201.406V55.6484H178.901V24Z" fill="black"/>
<path d="M225.319 24H264V38.0659H241.494V40.8791H264V73.2308H225.319V58.4615H247.824V55.6484H225.319V24Z" fill="black"/>
<path d="M274.127 212.636L279.892 147.995H199.889V179.932H244.892L241.986 212.636H199.889V244.573H239.216L235.509 285.993L199.889 295.607V328.833L265.362 310.688L265.842 305.292L273.347 221.212L274.127 212.636Z" fill="white"/>
</g>
<defs>
<clipPath id="clip0_59_211">
<rect width="256" height="361" fill="white" transform="translate(72 24)"/>
</clipPath>
</defs>
</svg>
