<svg width="400" height="400" viewBox="0 0 400 400" fill="none" xmlns="http://www.w3.org/2000/svg">
<rect width="400" height="400" fill="black"/>
<rect x="5" y="5" width="390" height="390" fill="white"/>
<g clip-path="url(#clip0_59_230)">
<path d="M149.965 167.568L198.535 139.526C199.75 138.825 201.249 138.825 202.464 139.526L251.035 167.568C252.25 168.27 253 169.567 253 170.971V227.055C253 228.458 252.25 229.755 251.035 230.458L202.464 258.5C201.249 259.202 199.75 259.202 198.535 258.5L149.965 230.458C148.749 229.756 148 228.459 148 227.055V170.971C148.001 169.567 148.75 168.27 149.965 167.568Z" fill="#8080F2"/>
<path d="M326.417 194.417L268.323 93.3498C266.213 89.6955 262.315 87 258.095 87H141.906C137.686 87 133.786 89.6955 131.676 93.3498L73.5827 194.194C71.4724 197.849 71.4724 202.462 73.5827 206.117L131.676 306.356C133.786 310.01 137.686 311.878 141.906 311.878H258.094C262.314 311.878 266.213 310.066 268.322 306.411L326.416 206.009C328.528 202.356 328.528 198.071 326.417 194.417ZM278.312 243.016C278.312 244.502 277.418 245.877 276.13 246.621L202.131 289.314C200.844 290.057 199.232 290.057 197.945 289.314L123.889 246.621C122.602 245.877 121.701 244.503 121.701 243.016V157.628C121.701 156.141 122.589 154.768 123.877 154.024L197.872 111.33C199.159 110.586 200.77 110.586 202.057 111.33L276.118 154.024C277.406 154.768 278.312 156.141 278.312 157.628V243.016Z" fill="#4B32C3"/>
</g>
<defs>
<clipPath id="clip0_59_230">
<rect width="256" height="225" fill="white" transform="translate(72 87)"/>
</clipPath>
</defs>
</svg>
