<svg width="400" height="400" viewBox="0 0 400 400" fill="none" xmlns="http://www.w3.org/2000/svg">
<rect width="400" height="400" fill="black"/>
<rect x="5" y="5" width="390" height="390" fill="white"/>
<g clip-path="url(#clip0_59_233)">
<path d="M205.001 75C134.317 75 77 132.307 77 203.001C77 259.555 113.676 307.536 164.535 324.461C170.932 325.646 173.281 321.684 173.281 318.303C173.281 315.251 173.162 305.168 173.107 294.472C137.497 302.215 129.983 279.37 129.983 279.37C124.16 264.575 115.77 260.641 115.77 260.641C104.157 252.696 116.646 252.859 116.646 252.859C129.499 253.762 136.267 266.05 136.267 266.05C147.684 285.618 166.212 279.961 173.516 276.69C174.665 268.418 177.982 262.771 181.643 259.574C153.212 256.338 123.325 245.362 123.325 196.316C123.325 182.341 128.325 170.922 136.513 161.958C135.184 158.734 130.803 145.716 137.753 128.084C137.753 128.084 148.502 124.644 172.963 141.205C183.173 138.369 194.123 136.947 205.001 136.898C215.879 136.947 226.838 138.369 237.067 141.205C261.498 124.644 272.232 128.084 272.232 128.084C279.199 145.716 274.816 158.734 273.487 161.958C281.694 170.922 286.66 182.341 286.66 196.316C286.66 245.479 256.716 256.304 228.213 259.473C232.804 263.445 236.895 271.235 236.895 283.177C236.895 300.303 236.747 314.087 236.747 318.303C236.747 321.71 239.051 325.701 245.539 324.444C296.37 307.5 333 259.536 333 203.001C333 132.307 275.691 75 205.001 75ZM124.941 257.34C124.659 257.976 123.658 258.167 122.747 257.73C121.818 257.313 121.297 256.446 121.598 255.808C121.873 255.153 122.876 254.97 123.802 255.409C124.733 255.827 125.263 256.702 124.941 257.34ZM131.237 262.958C130.626 263.524 129.433 263.261 128.623 262.367C127.786 261.474 127.629 260.281 128.248 259.707C128.878 259.141 130.035 259.406 130.874 260.298C131.712 261.201 131.875 262.386 131.237 262.958ZM135.556 270.146C134.772 270.691 133.49 270.18 132.697 269.042C131.913 267.904 131.913 266.539 132.714 265.992C133.509 265.445 134.772 265.937 135.575 267.066C136.357 268.224 136.357 269.589 135.556 270.146ZM142.861 278.471C142.16 279.245 140.665 279.037 139.572 277.982C138.452 276.949 138.141 275.485 138.845 274.711C139.555 273.935 141.058 274.153 142.16 275.201C143.27 276.231 143.61 277.706 142.861 278.471ZM152.303 281.282C151.993 282.284 150.554 282.74 149.104 282.314C147.656 281.875 146.709 280.701 147.001 279.688C147.302 278.679 148.748 278.204 150.208 278.66C151.654 279.096 152.604 280.262 152.303 281.282ZM163.047 282.474C163.083 283.529 161.854 284.405 160.332 284.424C158.801 284.458 157.563 283.603 157.546 282.565C157.546 281.499 158.748 280.632 160.279 280.606C161.801 280.577 163.047 281.424 163.047 282.474ZM173.602 282.069C173.784 283.099 172.727 284.157 171.215 284.439C169.73 284.71 168.354 284.074 168.165 283.053C167.981 281.997 169.058 280.939 170.541 280.666C172.055 280.403 173.409 281.022 173.602 282.069Z" fill="#161614"/>
</g>
<defs>
<clipPath id="clip0_59_233">
<rect width="256" height="250" fill="white" transform="translate(77 75)"/>
</clipPath>
</defs>
</svg>
