<svg width="400" height="400" viewBox="0 0 400 400" fill="none" xmlns="http://www.w3.org/2000/svg">
<rect width="400" height="400" fill="black"/>
<rect x="5" y="5" width="390" height="390" fill="white"/>
<g clip-path="url(#clip0_59_208)">
<path d="M327.555 99.7656L304.314 360.125L199.844 389.088L95.6617 360.166L72.4452 99.7656H327.555Z" fill="#E44D26"/>
<path d="M200 366.95L284.417 343.547L304.278 121.057H200V366.95Z" fill="#F16529"/>
<path d="M154.82 184.932H200V152.995H119.917L120.681 161.563L128.531 249.573H200V217.636H157.739L154.82 184.932Z" fill="#EBEBEB"/>
<path d="M162.018 265.542H129.958L134.432 315.688L199.853 333.849L200 333.808V300.58L199.86 300.618L164.292 291.013L162.018 265.542Z" fill="#EBEBEB"/>
<path d="M96.1808 29H112.411V45.0352H127.257V29H143.488V77.5584H127.258V61.2982H112.411V77.5584H96.1815L96.1808 29Z" fill="black"/>
<path d="M164.831 45.1027H150.543V29H195.357V45.1027H181.062V77.5584H164.832L164.831 45.1027Z" fill="black"/>
<path d="M202.469 29H219.393L229.803 46.062L240.203 29H257.132V77.5584H240.969V53.4902L229.803 70.7554H229.524L218.35 53.4902V77.5584H202.469V29Z" fill="black"/>
<path d="M265.21 29H281.445V61.5078H304.269V77.5584H265.21V29Z" fill="black"/>
<path d="M199.89 249.573H239.217L235.51 290.993L199.89 300.607V333.833L265.362 315.688L265.843 310.292L273.348 226.212L274.127 217.636H199.89V249.573Z" fill="white"/>
<path d="M199.89 184.854V184.932H277.033L277.674 177.753L279.129 161.563L279.892 152.995H199.89V184.854Z" fill="white"/>
</g>
<defs>
<clipPath id="clip0_59_208">
<rect width="256" height="361" fill="white" transform="translate(72 29)"/>
</clipPath>
</defs>
</svg>
