<svg width="400" height="400" viewBox="0 0 400 400" fill="none" xmlns="http://www.w3.org/2000/svg">
<rect width="400" height="400" fill="black"/>
<rect x="5" y="5" width="390" height="390" fill="white"/>
<g clip-path="url(#clip0_59_213)">
<path d="M72 72H328V328H72V72Z" fill="#F7DF1E"/>
<path d="M139.312 285.932L158.903 274.076C162.682 280.777 166.12 286.447 174.367 286.447C182.272 286.447 187.256 283.355 187.256 271.327V189.529H211.314V271.667C211.314 296.584 196.708 307.926 175.398 307.926C156.153 307.926 144.982 297.959 139.311 285.93" fill="black"/>
<path d="M224.381 283.354L243.969 272.013C249.126 280.434 255.828 286.62 267.684 286.62C277.652 286.62 284.009 281.636 284.009 274.762C284.009 266.514 277.479 263.592 266.481 258.782L260.468 256.203C243.111 248.815 231.597 239.535 231.597 219.945C231.597 201.901 245.344 188.153 266.826 188.153C282.12 188.153 293.118 193.481 301.022 207.4L282.29 219.429C278.166 212.04 273.699 209.119 266.826 209.119C259.78 209.119 255.312 213.587 255.312 219.429C255.312 226.646 259.78 229.568 270.09 234.037L276.104 236.614C296.553 245.379 308.067 254.313 308.067 274.418C308.067 296.072 291.055 307.928 268.2 307.928C245.861 307.928 231.425 297.274 224.381 283.354Z" fill="black"/>
</g>
<defs>
<clipPath id="clip0_59_213">
<rect width="256" height="256" fill="white" transform="translate(72 72)"/>
</clipPath>
</defs>
</svg>
