<svg width="400" height="400" viewBox="0 0 400 400" fill="none" xmlns="http://www.w3.org/2000/svg">
<rect width="400" height="400" fill="black"/>
<rect x="5" y="5" width="390" height="390" fill="white"/>
<path d="M205 348.464C201.025 348.464 197.315 347.404 193.87 345.549L158.623 324.613C153.323 321.698 155.973 320.638 157.563 320.108C164.718 317.723 166.043 317.193 173.464 312.952C174.259 312.422 175.319 312.687 176.114 313.217L203.145 329.383C204.205 329.913 205.53 329.913 206.325 329.383L312.064 268.166C313.124 267.636 313.654 266.576 313.654 265.251V143.081C313.654 141.756 313.124 140.696 312.064 140.166L206.325 79.2133C205.265 78.6832 203.94 78.6832 203.145 79.2133L97.4058 140.166C96.3458 140.696 95.8157 142.021 95.8157 143.081V265.251C95.8157 266.311 96.3458 267.636 97.4058 268.166L126.292 284.861C141.928 292.812 151.733 283.536 151.733 274.261V153.681C151.733 152.091 153.058 150.501 154.913 150.501H168.429C170.019 150.501 171.609 151.826 171.609 153.681V274.261C171.609 295.197 160.213 307.387 140.337 307.387C134.242 307.387 129.472 307.387 115.957 300.762L88.1304 284.861C81.2402 280.886 77 273.466 77 265.516V143.346C77 135.395 81.2402 127.975 88.1304 124L193.87 62.7826C200.495 59.0725 209.505 59.0725 216.13 62.7826L321.87 124C328.76 127.975 333 135.395 333 143.346V265.516C333 273.466 328.76 280.886 321.87 284.861L216.13 346.079C212.685 347.669 208.71 348.464 205 348.464ZM237.596 264.455C191.219 264.455 181.679 243.255 181.679 225.234C181.679 223.644 183.004 222.054 184.859 222.054H198.64C200.23 222.054 201.555 223.114 201.555 224.704C203.675 238.749 209.77 245.64 237.861 245.64C260.122 245.64 269.663 240.605 269.663 228.679C269.663 221.789 267.012 216.754 232.296 213.308C203.41 210.393 185.389 204.033 185.389 180.977C185.389 159.511 203.41 146.791 233.621 146.791C267.542 146.791 284.238 158.451 286.358 183.892C286.358 184.687 286.093 185.482 285.563 186.277C285.033 186.807 284.238 187.337 283.443 187.337H269.663C268.337 187.337 267.012 186.277 266.747 184.952C263.567 170.377 255.352 165.607 233.621 165.607C209.24 165.607 206.325 174.087 206.325 180.447C206.325 188.133 209.77 190.518 242.631 194.758C275.228 198.998 290.598 205.093 290.598 227.884C290.333 251.205 271.253 264.455 237.596 264.455Z" fill="#539E43"/>
</svg>
