<svg width="400" height="400" viewBox="0 0 400 400" fill="none" xmlns="http://www.w3.org/2000/svg">
<rect width="400" height="400" fill="black"/>
<rect x="5" y="5" width="390" height="390" fill="white"/>
<g clip-path="url(#clip0_59_228)">
<path d="M322.008 226.085C320.473 221.437 316.452 218.199 311.252 217.422C308.8 217.056 305.992 217.212 302.669 217.897C296.877 219.092 292.58 219.547 289.444 219.635C301.281 199.65 310.906 176.86 316.447 155.406C325.406 120.718 320.619 104.915 315.024 97.7668C300.217 78.8477 278.614 68.6833 252.552 68.3718C238.649 68.2021 226.444 70.9471 220.077 72.9206C214.149 71.8754 207.775 71.2912 201.086 71.183C188.55 70.9832 177.473 73.7158 168.008 79.3325C162.767 77.5612 154.358 75.0632 144.646 73.4687C121.804 69.7186 103.394 72.641 89.9283 82.1538C73.6223 93.672 66.0629 113.684 67.4612 141.634C67.9046 150.508 72.8691 177.508 80.6851 203.114C85.1772 217.831 89.9673 230.054 94.9223 239.444C101.949 252.759 109.468 260.6 117.909 263.415C122.64 264.992 131.236 266.095 140.277 258.567C141.423 259.954 142.952 261.333 144.981 262.614C147.558 264.239 150.709 265.567 153.856 266.354C165.197 269.189 175.82 268.48 184.883 264.506C184.939 266.118 184.982 267.658 185.018 268.988C185.079 271.145 185.138 273.26 185.217 275.237C185.754 288.612 186.664 299.011 189.36 306.287C189.508 306.688 189.707 307.297 189.917 307.943C191.262 312.062 193.511 318.956 199.233 324.355C205.158 329.948 212.325 331.663 218.889 331.663C222.181 331.663 225.322 331.231 228.077 330.641C237.897 328.536 249.05 325.33 257.118 313.842C264.746 302.982 268.454 286.625 269.125 260.851C269.212 260.123 269.292 259.427 269.369 258.764C269.422 258.316 269.475 257.858 269.529 257.402L271.326 257.56L271.789 257.591C281.791 258.047 294.021 255.926 301.532 252.437C307.467 249.682 326.486 239.642 322.008 226.085Z" fill="black"/>
<path d="M304.906 228.723C275.166 234.857 273.121 224.788 273.121 224.788C304.522 178.195 317.648 119.052 306.32 104.577C275.417 65.0918 221.922 83.7656 221.029 84.2504L220.742 84.3019C214.866 83.0822 208.291 82.3556 200.9 82.235C187.444 82.0144 177.236 85.7628 169.49 91.6366C169.49 91.6366 74.0603 52.3232 78.4987 141.081C79.4428 159.963 105.563 283.954 136.717 246.503C148.104 232.808 159.106 221.229 159.106 221.229C164.571 224.859 171.113 226.711 177.971 226.046L178.504 225.594C178.338 227.294 178.414 228.957 178.717 230.926C170.691 239.893 173.05 241.468 157.006 244.77C140.771 248.116 150.308 254.072 156.535 255.629C164.084 257.517 181.548 260.191 193.348 243.672L192.877 245.557C196.022 248.076 198.23 261.94 197.86 274.509C197.49 287.078 197.243 295.706 199.721 302.446C202.199 309.186 204.668 324.351 225.76 319.832C243.383 316.055 252.516 306.268 253.787 289.943C254.688 278.336 256.728 280.052 256.857 269.675L258.494 264.763C260.381 249.03 258.794 243.954 269.651 246.315L272.29 246.547C280.282 246.91 290.741 245.261 296.88 242.408C310.098 236.274 317.938 226.031 304.904 228.723H304.906Z" fill="#336791"/>
<path d="M175.076 149.525C172.397 149.152 169.969 149.497 168.741 150.426C168.05 150.95 167.837 151.556 167.78 151.973C167.625 153.078 168.4 154.299 168.875 154.93C170.221 156.713 172.187 157.94 174.133 158.21C174.415 158.249 174.696 158.268 174.975 158.268C178.221 158.268 181.171 155.741 181.431 153.876C181.756 151.54 178.365 149.982 175.076 149.525Z" fill="white"/>
<path d="M263.86 149.599C263.605 147.768 260.346 147.246 257.253 147.675C254.166 148.106 251.172 149.499 251.422 151.334C251.623 152.762 254.199 155.198 257.249 155.198C257.507 155.198 257.767 155.18 258.029 155.144C260.065 154.862 261.559 153.569 262.268 152.823C263.35 151.688 263.974 150.422 263.86 149.599Z" fill="white"/>
<path d="M314.802 228.025C313.668 224.596 310.019 223.493 303.954 224.745C285.949 228.461 279.501 225.887 277.384 224.328C291.379 203.007 302.892 177.236 309.103 153.191C312.045 141.801 313.67 131.223 313.803 122.602C313.95 113.138 312.338 106.184 309.014 101.936C295.612 84.8109 275.942 75.625 252.132 75.3726C235.763 75.1887 221.933 79.3781 219.252 80.5558C213.606 79.1517 207.451 78.2897 200.75 78.1797C188.462 77.981 177.84 80.923 169.046 86.9192C165.226 85.4979 155.354 82.109 143.281 80.1644C122.409 76.8033 105.823 79.3497 93.987 87.7351C79.8639 97.7409 73.3438 115.627 74.6073 140.894C75.0324 149.396 79.8757 175.548 87.5202 200.593C97.5822 233.557 108.519 252.218 120.028 256.057C121.375 256.506 122.929 256.82 124.641 256.82C128.839 256.82 133.986 254.928 139.341 248.49C148.236 237.789 156.541 228.822 159.602 225.564C164.126 227.992 169.096 229.348 174.179 229.484C174.188 229.617 174.202 229.75 174.214 229.882C173.194 231.092 172.357 232.152 171.644 233.057C168.122 237.528 167.389 238.459 156.052 240.794C152.827 241.459 144.261 243.224 144.136 249.228C144 255.788 154.261 258.543 155.43 258.835C159.504 259.855 163.429 260.358 167.172 260.358C176.275 260.357 184.286 257.366 190.688 251.577C190.491 274.963 191.466 298.007 194.274 305.028C196.573 310.776 202.192 324.823 219.938 324.822C222.542 324.822 225.408 324.519 228.561 323.843C247.082 319.872 255.125 311.687 258.236 293.64C259.901 283.995 262.758 260.964 264.102 248.61C266.938 249.495 270.589 249.9 274.536 249.899C282.768 249.899 292.267 248.15 298.224 245.385C304.916 242.277 316.992 234.651 314.802 228.025ZM270.696 144.545C270.635 148.192 270.133 151.503 269.601 154.959C269.028 158.676 268.436 162.519 268.287 167.184C268.14 171.724 268.707 176.445 269.255 181.009C270.363 190.228 271.5 199.721 267.099 209.087C266.415 207.872 265.754 206.546 265.149 205.078C264.602 203.752 263.414 201.622 261.77 198.674C255.37 187.198 240.385 160.324 248.056 149.358C250.341 146.094 256.14 142.738 270.696 144.545ZM253.052 82.7581C274.386 83.2293 291.261 91.2103 303.21 106.478C312.374 118.189 302.283 171.476 273.07 217.447C272.781 217.08 272.488 216.71 272.184 216.33C272.062 216.178 271.939 216.024 271.814 215.868C279.363 203.401 277.887 191.066 276.573 180.13C276.033 175.642 275.524 171.403 275.653 167.421C275.787 163.2 276.345 159.581 276.885 156.081C277.548 151.768 278.223 147.305 278.037 142.044C278.176 141.492 278.232 140.84 278.159 140.066C277.684 135.021 271.924 119.922 260.184 106.255C253.762 98.7809 244.397 90.4157 231.61 84.7736C237.11 83.6337 244.631 82.5707 253.052 82.7581ZM133.674 243.778C127.774 250.872 123.7 249.512 122.36 249.066C113.629 246.154 103.5 227.702 94.5688 198.442C86.8409 173.124 82.3245 147.665 81.9674 140.526C80.8388 117.948 86.3117 102.213 98.235 93.7573C117.639 79.9965 149.541 88.2329 162.36 92.4105C162.176 92.592 161.984 92.7622 161.802 92.9467C140.766 114.191 141.265 150.488 141.317 152.706C141.315 153.562 141.387 154.774 141.485 156.441C141.847 162.546 142.521 173.908 140.721 186.775C139.049 198.732 142.735 210.435 150.832 218.884C151.67 219.758 152.545 220.58 153.449 221.352C149.845 225.212 142.012 233.748 133.674 243.778ZM156.153 213.785C149.627 206.975 146.663 197.503 148.02 187.796C149.92 174.203 149.219 162.365 148.842 156.005C148.789 155.115 148.743 154.335 148.715 153.72C151.788 150.995 166.029 143.365 176.184 145.692C180.819 146.753 183.643 149.909 184.817 155.337C190.893 183.44 185.621 195.153 181.385 204.566C180.512 206.505 179.687 208.338 178.983 210.234L178.437 211.7C177.055 215.406 175.769 218.852 174.972 222.124C168.034 222.103 161.285 219.14 156.153 213.785ZM157.218 251.685C155.192 251.179 153.37 250.3 152.301 249.571C153.194 249.15 154.783 248.579 157.539 248.012C170.876 245.266 172.936 243.328 177.434 237.617C178.465 236.308 179.634 234.823 181.253 233.015L181.255 233.013C183.666 230.313 184.769 230.771 186.769 231.601C188.39 232.272 189.969 234.303 190.609 236.539C190.912 237.595 191.252 239.6 190.139 241.159C180.743 254.315 167.051 254.146 157.218 251.685ZM227.017 316.637C210.701 320.133 204.924 311.808 201.117 302.291C198.66 296.147 197.452 268.44 198.309 237.844C198.32 237.437 198.262 237.043 198.15 236.674C198.052 235.96 197.902 235.238 197.694 234.512C196.42 230.06 193.315 226.336 189.59 224.792C188.11 224.179 185.394 223.054 182.13 223.889C182.826 221.021 184.033 217.782 185.342 214.275L185.891 212.8C186.509 211.137 187.285 209.414 188.105 207.59C192.538 197.742 198.609 184.253 192.02 153.78C189.552 142.366 181.31 136.792 168.816 138.087C161.325 138.862 154.473 141.884 151.055 143.617C150.32 143.989 149.648 144.349 149.02 144.7C149.974 133.199 153.578 111.707 167.061 98.1099C175.549 89.5489 186.854 85.3211 200.628 85.5487C227.769 85.9933 245.172 99.9214 254.994 111.528C263.458 121.529 268.041 131.604 269.87 137.037C256.115 135.639 246.76 138.354 242.018 145.134C231.701 159.882 247.662 188.506 255.333 202.263C256.74 204.784 257.954 206.963 258.336 207.889C260.834 213.943 264.068 217.985 266.429 220.935C267.153 221.839 267.855 222.716 268.389 223.482C264.223 224.683 256.74 227.458 257.422 241.329C256.872 248.289 252.961 280.875 250.974 292.388C248.351 307.598 242.754 313.263 227.017 316.637ZM295.121 238.701C290.861 240.678 283.732 242.162 276.96 242.48C269.479 242.83 265.672 241.642 264.776 240.911C264.355 232.267 267.573 231.364 270.978 230.408C271.513 230.257 272.035 230.111 272.539 229.935C272.852 230.19 273.195 230.443 273.571 230.691C279.583 234.659 290.306 235.087 305.445 231.962C305.5 231.951 305.556 231.94 305.611 231.929C303.569 233.838 300.075 236.4 295.121 238.701Z" fill="white"/>
</g>
<defs>
<clipPath id="clip0_59_228">
<rect width="256" height="264" fill="white" transform="translate(67 68)"/>
</clipPath>
</defs>
</svg>
