<svg width="400" height="400" viewBox="0 0 400 400" fill="none" xmlns="http://www.w3.org/2000/svg">
<rect width="400" height="400" fill="black"/>
<rect x="5" y="5" width="390" height="390" fill="white"/>
<g clip-path="url(#clip0_59_231)">
<path d="M269.238 125.762H254.857C252.096 125.762 249.857 128 249.857 130.762V132.952C249.857 135.714 252.096 137.952 254.857 137.952H269.238C272 137.952 274.238 135.714 274.238 132.952V130.762C274.238 128 272 125.762 269.238 125.762Z" fill="#56B3B4"/>
<path d="M135.143 320.81H72C69.2386 320.81 67 323.048 67 325.81V328C67 330.761 69.2386 333 72 333H135.143C137.904 333 140.143 330.761 140.143 328V325.81C140.143 323.048 137.904 320.81 135.143 320.81Z" fill="#EA5E5E"/>
<path d="M257.048 223.286H218.286C215.524 223.286 213.286 225.524 213.286 228.286V230.476C213.286 233.238 215.524 235.476 218.286 235.476H257.048C259.809 235.476 262.048 233.238 262.048 230.476V228.286C262.048 225.524 259.809 223.286 257.048 223.286Z" fill="#BF85BF"/>
<path d="M196.095 223.286H145.143C142.381 223.286 140.143 225.524 140.143 228.286V230.476C140.143 233.238 142.381 235.476 145.143 235.476H196.095C198.857 235.476 201.095 233.238 201.095 230.476V228.286C201.095 225.524 198.857 223.286 196.095 223.286Z" fill="#EA5E5E"/>
<path d="M122.952 223.286H72C69.2386 223.286 67 225.524 67 228.286V230.476C67 233.238 69.2386 235.476 72 235.476H122.952C125.714 235.476 127.952 233.238 127.952 230.476V228.286C127.952 225.524 125.714 223.286 122.952 223.286Z" fill="#56B3B4"/>
<path d="M135.143 272.048H72C69.2386 272.048 67 274.286 67 277.048V279.238C67 282 69.2386 284.238 72 284.238H135.143C137.904 284.238 140.143 282 140.143 279.238V277.048C140.143 274.286 137.904 272.048 135.143 272.048Z" fill="#BF85BF"/>
<path d="M135.143 174.524H72C69.2386 174.524 67 176.763 67 179.524V181.714C67 184.476 69.2386 186.714 72 186.714H135.143C137.904 186.714 140.143 184.476 140.143 181.714V179.524C140.143 176.763 137.904 174.524 135.143 174.524Z" fill="#BF85BF"/>
<path d="M257.048 101.381H132.952C130.191 101.381 127.952 103.619 127.952 106.381V108.571C127.952 111.333 130.191 113.571 132.952 113.571H257.048C259.809 113.571 262.048 111.333 262.048 108.571V106.381C262.048 103.619 259.809 101.381 257.048 101.381Z" fill="#F7BA3E"/>
<path d="M110.762 101.381H72C69.2386 101.381 67 103.619 67 106.381V108.571C67 111.333 69.2386 113.571 72 113.571H110.762C113.523 113.571 115.762 111.333 115.762 108.571V106.381C115.762 103.619 113.523 101.381 110.762 101.381Z" fill="#EA5E5E"/>
<path d="M135.143 296.429H120.762C118.001 296.429 115.762 298.667 115.762 301.429V303.619C115.762 306.381 118.001 308.619 120.762 308.619H135.143C137.904 308.619 140.143 306.381 140.143 303.619V301.429C140.143 298.667 137.904 296.429 135.143 296.429Z" fill="#F7BA3E"/>
<path d="M135.143 150.143H120.762C118.001 150.143 115.762 152.382 115.762 155.143V157.334C115.762 160.095 118.001 162.334 120.762 162.334H135.143C137.904 162.334 140.143 160.095 140.143 157.334V155.143C140.143 152.382 137.904 150.143 135.143 150.143Z" fill="#56B3B4"/>
<path d="M98.5714 296.429H72C69.2386 296.429 67 298.667 67 301.429V303.619C67 306.381 69.2386 308.619 72 308.619H98.5714C101.333 308.619 103.571 306.381 103.571 303.619V301.429C103.571 298.667 101.333 296.429 98.5714 296.429Z" fill="#56B3B4"/>
<path d="M98.5714 150.143H72C69.2386 150.143 67 152.382 67 155.143V157.334C67 160.095 69.2386 162.334 72 162.334H98.5714C101.333 162.334 103.571 160.095 103.571 157.334V155.143C103.571 152.382 101.333 150.143 98.5714 150.143Z" fill="#F7BA3E"/>
<path opacity="0.5" d="M244.857 296.429H230.476C227.715 296.429 225.476 298.667 225.476 301.429V303.619C225.476 306.381 227.715 308.619 230.476 308.619H244.857C247.618 308.619 249.857 306.381 249.857 303.619V301.429C249.857 298.667 247.618 296.429 244.857 296.429Z" fill="#D0D4D8"/>
<path opacity="0.5" d="M208.286 296.429H157.333C154.572 296.429 152.333 298.667 152.333 301.429V303.619C152.333 306.381 154.572 308.619 157.333 308.619H208.286C211.047 308.619 213.286 306.381 213.286 303.619V301.429C213.286 298.667 211.047 296.429 208.286 296.429Z" fill="#D0D4D8"/>
<path opacity="0.5" d="M318 296.429H267.048C264.286 296.429 262.048 298.667 262.048 301.429V303.619C262.048 306.381 264.286 308.619 267.048 308.619H318C320.761 308.619 323 306.381 323 303.619V301.429C323 298.667 320.761 296.429 318 296.429Z" fill="#D0D4D8"/>
<path d="M269.238 198.905H169.524C166.763 198.905 164.524 201.143 164.524 203.905V206.095C164.524 208.857 166.763 211.095 169.524 211.095H269.238C272 211.095 274.238 208.857 274.238 206.095V203.905C274.238 201.143 272 198.905 269.238 198.905Z" fill="#56B3B4"/>
<path d="M147.333 198.905H108.572C105.81 198.905 103.572 201.143 103.572 203.905V206.095C103.572 208.857 105.81 211.095 108.572 211.095H147.333C150.095 211.095 152.333 208.857 152.333 206.095V203.905C152.333 201.143 150.095 198.905 147.333 198.905Z" fill="#F7BA3E"/>
<path d="M86.381 198.905H72C69.2386 198.905 67 201.143 67 203.905V206.095C67 208.857 69.2386 211.095 72 211.095H86.381C89.1424 211.095 91.381 208.857 91.381 206.095V203.905C91.381 201.143 89.1424 198.905 86.381 198.905Z" fill="#EA5E5E"/>
<path d="M232.667 125.762H181.714C178.953 125.762 176.714 128 176.714 130.762V132.952C176.714 135.714 178.953 137.952 181.714 137.952H232.667C235.428 137.952 237.667 135.714 237.667 132.952V130.762C237.667 128 235.428 125.762 232.667 125.762Z" fill="#BF85BF"/>
<path d="M159.524 125.762H72C69.2386 125.762 67 128 67 130.762V132.952C67 135.714 69.2386 137.952 72 137.952H159.524C162.285 137.952 164.524 135.714 164.524 132.952V130.762C164.524 128 162.285 125.762 159.524 125.762Z" fill="#56B3B4"/>
<path d="M220.476 247.667H108.572C105.81 247.667 103.572 249.905 103.572 252.667V254.857C103.572 257.618 105.81 259.857 108.572 259.857H220.476C223.238 259.857 225.476 257.618 225.476 254.857V252.667C225.476 249.905 223.238 247.667 220.476 247.667Z" fill="#F7BA3E"/>
<path d="M86.381 247.667H72C69.2386 247.667 67 249.905 67 252.667V254.857C67 257.618 69.2386 259.857 72 259.857H86.381C89.1424 259.857 91.381 257.618 91.381 254.857V252.667C91.381 249.905 89.1424 247.667 86.381 247.667Z" fill="#BF85BF"/>
<path d="M281.428 150.143H218.286C215.524 150.143 213.286 152.382 213.286 155.143V157.334C213.286 160.095 215.524 162.334 218.286 162.334H281.428C284.19 162.334 286.428 160.095 286.428 157.334V155.143C286.428 152.382 284.19 150.143 281.428 150.143Z" fill="#EA5E5E"/>
<path d="M281.428 174.524H218.286C215.524 174.524 213.286 176.763 213.286 179.524V181.714C213.286 184.476 215.524 186.714 218.286 186.714H281.428C284.19 186.714 286.428 184.476 286.428 181.714V179.524C286.428 176.763 284.19 174.524 281.428 174.524Z" fill="#F7BA3E"/>
<path d="M220.476 77H72C69.2386 77 67 79.2386 67 82V84.1905C67 86.9519 69.2386 89.1905 72 89.1905H220.476C223.238 89.1905 225.476 86.9519 225.476 84.1905V82C225.476 79.2386 223.238 77 220.476 77Z" fill="#56B3B4"/>
<path opacity="0.5" d="M318 77H242.667C239.905 77 237.667 79.2386 237.667 82V84.1905C237.667 86.9519 239.905 89.1905 242.667 89.1905H318C320.761 89.1905 323 86.9519 323 84.1905V82C323 79.2386 320.761 77 318 77Z" fill="#D0D4D8"/>
<path opacity="0.5" d="M269.238 247.667H242.667C239.905 247.667 237.667 249.905 237.667 252.667V254.857C237.667 257.618 239.905 259.857 242.667 259.857H269.238C272 259.857 274.238 257.618 274.238 254.857V252.667C274.238 249.905 272 247.667 269.238 247.667Z" fill="#D0D4D8"/>
<path opacity="0.5" d="M318 247.667H291.428C288.667 247.667 286.428 249.905 286.428 252.667V254.857C286.428 257.618 288.667 259.857 291.428 259.857H318C320.761 259.857 323 257.618 323 254.857V252.667C323 249.905 320.761 247.667 318 247.667Z" fill="#D0D4D8"/>
<path opacity="0.5" d="M318 223.286H279.238C276.477 223.286 274.238 225.524 274.238 228.286V230.476C274.238 233.238 276.477 235.476 279.238 235.476H318C320.761 235.476 323 233.238 323 230.476V228.286C323 225.524 320.761 223.286 318 223.286Z" fill="#D0D4D8"/>
<path opacity="0.5" d="M318 101.381H279.238C276.477 101.381 274.238 103.619 274.238 106.381V108.571C274.238 111.333 276.477 113.571 279.238 113.571H318C320.761 113.571 323 111.333 323 108.571V106.381C323 103.619 320.761 101.381 318 101.381Z" fill="#D0D4D8"/>
<path opacity="0.5" d="M318 198.905H291.428C288.667 198.905 286.428 201.143 286.428 203.905V206.095C286.428 208.857 288.667 211.095 291.428 211.095H318C320.761 211.095 323 208.857 323 206.095V203.905C323 201.143 320.761 198.905 318 198.905Z" fill="#D0D4D8"/>
<path opacity="0.5" d="M318 125.762H291.428C288.667 125.762 286.428 128 286.428 130.762V132.952C286.428 135.714 288.667 137.952 291.428 137.952H318C320.761 137.952 323 135.714 323 132.952V130.762C323 128 320.761 125.762 318 125.762Z" fill="#D0D4D8"/>
<path opacity="0.5" d="M318 150.143H303.619C300.858 150.143 298.619 152.382 298.619 155.143V157.334C298.619 160.095 300.858 162.334 303.619 162.334H318C320.762 162.334 323 160.095 323 157.334V155.143C323 152.382 320.762 150.143 318 150.143Z" fill="#D0D4D8"/>
<path opacity="0.5" d="M318 174.524H303.619C300.858 174.524 298.619 176.763 298.619 179.524V181.714C298.619 184.476 300.858 186.714 303.619 186.714H318C320.762 186.714 323 184.476 323 181.714V179.524C323 176.763 320.762 174.524 318 174.524Z" fill="#D0D4D8"/>
<path opacity="0.5" d="M318 272.048H206.095C203.334 272.048 201.095 274.286 201.095 277.048V279.238C201.095 282 203.334 284.238 206.095 284.238H318C320.761 284.238 323 282 323 279.238V277.048C323 274.286 320.761 272.048 318 272.048Z" fill="#D0D4D8"/>
<path opacity="0.5" d="M183.905 272.048H157.333C154.572 272.048 152.333 274.286 152.333 277.048V279.238C152.333 282 154.572 284.238 157.333 284.238H183.905C186.666 284.238 188.905 282 188.905 279.238V277.048C188.905 274.286 186.666 272.048 183.905 272.048Z" fill="#D0D4D8"/>
<path opacity="0.5" d="M318 320.81H254.857C252.096 320.81 249.857 323.048 249.857 325.81V328C249.857 330.761 252.096 333 254.857 333H318C320.761 333 323 330.761 323 328V325.81C323 323.048 320.761 320.81 318 320.81Z" fill="#D0D4D8"/>
<path opacity="0.5" d="M232.667 320.81H157.333C154.572 320.81 152.333 323.048 152.333 325.81V328C152.333 330.761 154.572 333 157.333 333H232.667C235.428 333 237.667 330.761 237.667 328V325.81C237.667 323.048 235.428 320.81 232.667 320.81Z" fill="#D0D4D8"/>
<path opacity="0.5" d="M196.095 150.143H157.333C154.572 150.143 152.333 152.382 152.333 155.143V157.334C152.333 160.095 154.572 162.334 157.333 162.334H196.095C198.857 162.334 201.095 160.095 201.095 157.334V155.143C201.095 152.382 198.857 150.143 196.095 150.143Z" fill="#D0D4D8"/>
<path opacity="0.5" d="M196.095 174.524H157.333C154.572 174.524 152.333 176.763 152.333 179.524V181.714C152.333 184.476 154.572 186.714 157.333 186.714H196.095C198.857 186.714 201.095 184.476 201.095 181.714V179.524C201.095 176.763 198.857 174.524 196.095 174.524Z" fill="#D0D4D8"/>
</g>
<defs>
<clipPath id="clip0_59_231">
<rect width="256" height="256" fill="white" transform="translate(67 77)"/>
</clipPath>
</defs>
</svg>
