<svg width="400" height="400" viewBox="0 0 400 400" fill="none" xmlns="http://www.w3.org/2000/svg">
<rect width="400" height="400" fill="black"/>
<rect x="5" y="5" width="390" height="390" fill="white"/>
<g clip-path="url(#clip0_59_229)">
<path d="M326.314 285.521L220.002 59.7518C217.311 54.0913 211.733 50.3618 205.473 50.0379C199.2 49.6175 193.213 52.7212 189.94 58.0903L74.6333 244.849C71.0536 250.606 71.1289 257.915 74.8265 263.597L131.201 350.898C135.581 357.629 143.867 360.676 151.564 358.386L315.162 309.995C320.146 308.538 324.254 304.991 326.422 300.273C328.561 295.578 328.524 290.179 326.321 285.513L326.314 285.521ZM302.512 295.204L163.689 336.254C159.454 337.514 155.389 333.843 156.27 329.569L205.867 92.0851C206.795 87.6416 212.931 86.9383 214.87 91.0495L306.685 286.023C307.506 287.781 307.516 289.811 306.712 291.578C305.908 293.344 304.37 294.669 302.504 295.204H302.512Z" fill="black"/>
</g>
<defs>
<clipPath id="clip0_59_229">
<rect width="256" height="310" fill="white" transform="translate(72 50)"/>
</clipPath>
</defs>
</svg>
