<svg width="400" height="400" viewBox="0 0 400 400" fill="none" xmlns="http://www.w3.org/2000/svg">
<rect width="400" height="400" fill="black"/>
<rect x="5" y="5" width="390" height="390" fill="white"/>
<path d="M282.483 159.824C279.828 158.91 277.076 158.045 274.242 157.227C274.708 155.326 275.136 153.45 275.516 151.606C281.754 121.325 277.675 96.9302 263.747 88.8985C250.392 81.1971 228.551 89.227 206.493 108.424C204.372 110.27 202.245 112.224 200.118 114.272C198.702 112.917 197.287 111.608 195.877 110.355C172.759 89.8285 149.587 81.1784 135.673 89.2334C122.33 96.9571 118.379 119.89 123.995 148.588C124.537 151.36 125.171 154.191 125.887 157.069C122.608 158 119.442 158.992 116.413 160.048C89.3093 169.497 72 184.307 72 199.668C72 215.533 90.5816 231.446 118.812 241.095C121.039 241.857 123.351 242.577 125.733 243.26C124.96 246.373 124.288 249.423 123.723 252.398C118.369 280.598 122.55 302.989 135.857 310.664C149.601 318.59 172.669 310.443 195.13 290.809C196.906 289.257 198.687 287.611 200.472 285.886C202.786 288.114 205.095 290.222 207.393 292.2C229.15 310.922 250.638 318.482 263.932 310.786C277.663 302.837 282.126 278.783 276.332 249.518C275.89 247.283 275.375 245 274.797 242.676C276.416 242.197 278.007 241.702 279.557 241.188C308.905 231.465 328 215.745 328 199.668C328 184.251 310.132 169.342 282.483 159.824ZM276.118 230.808C274.718 231.271 273.282 231.719 271.818 232.153C268.578 221.896 264.206 210.99 258.855 199.721C263.961 188.721 268.165 177.954 271.314 167.764C273.933 168.522 276.474 169.321 278.924 170.164C302.613 178.32 317.064 190.377 317.064 199.668C317.064 209.564 301.458 222.411 276.118 230.808ZM265.604 251.642C268.166 264.583 268.531 276.283 266.835 285.429C265.31 293.648 262.244 299.127 258.452 301.322C250.385 305.991 233.132 299.921 214.525 283.91C212.392 282.074 210.244 280.115 208.088 278.04C215.302 270.151 222.511 260.98 229.547 250.794C241.923 249.696 253.615 247.9 264.218 245.449C264.74 247.556 265.204 249.622 265.604 251.642ZM159.276 300.515C151.394 303.298 145.116 303.378 141.321 301.19C133.246 296.533 129.889 278.554 134.468 254.438C134.993 251.676 135.617 248.839 136.337 245.939C146.823 248.258 158.43 249.927 170.835 250.933C177.919 260.9 185.336 270.061 192.811 278.083C191.178 279.659 189.551 281.16 187.934 282.575C178.001 291.257 168.048 297.417 159.276 300.515ZM122.349 230.747C109.866 226.48 99.557 220.935 92.4909 214.884C86.1415 209.447 82.9358 204.048 82.9358 199.668C82.9358 190.346 96.8335 178.456 120.012 170.375C122.825 169.394 125.769 168.47 128.824 167.602C132.028 178.022 136.23 188.917 141.301 199.934C136.164 211.115 131.902 222.183 128.667 232.726C126.489 232.099 124.379 231.441 122.349 230.747ZM134.727 146.488C129.916 121.9 133.111 103.353 141.152 98.6983C149.716 93.7401 168.654 100.809 188.615 118.533C189.891 119.666 191.172 120.851 192.456 122.078C185.018 130.065 177.669 139.157 170.648 149.066C158.608 150.182 147.083 151.974 136.487 154.375C135.821 151.695 135.231 149.062 134.727 146.488ZM245.154 173.755C242.621 169.38 240.02 165.108 237.369 160.952C245.537 161.985 253.363 163.356 260.712 165.033C258.506 172.104 255.756 179.497 252.519 187.077C250.196 182.668 247.74 178.223 245.154 173.755ZM200.122 129.894C205.166 135.359 210.218 141.46 215.187 148.08C210.18 147.844 205.111 147.721 200 147.721C194.937 147.721 189.906 147.841 184.93 148.074C189.904 141.515 194.999 135.422 200.122 129.894ZM154.802 173.831C152.272 178.218 149.861 182.639 147.575 187.069C144.391 179.516 141.666 172.089 139.441 164.917C146.745 163.283 154.534 161.946 162.65 160.933C159.961 165.127 157.339 169.431 154.802 173.831ZM162.883 239.183C154.498 238.247 146.592 236.98 139.29 235.39C141.551 228.091 144.335 220.505 147.588 212.79C149.879 217.216 152.299 221.638 154.845 226.036C157.438 230.515 160.126 234.904 162.883 239.183ZM200.425 270.213C195.241 264.621 190.071 258.434 185.022 251.78C189.924 251.972 194.921 252.071 200 252.071C205.218 252.071 210.376 251.953 215.453 251.727C210.468 258.501 205.435 264.697 200.425 270.213ZM252.623 212.396C256.045 220.195 258.929 227.741 261.219 234.916C253.797 236.61 245.783 237.974 237.339 238.987C239.997 234.776 242.62 230.43 245.198 225.961C247.805 221.438 250.282 216.909 252.623 212.396ZM235.725 220.497C231.723 227.436 227.614 234.059 223.444 240.312C215.847 240.855 207.999 241.135 200 241.135C192.033 241.135 184.284 240.887 176.822 240.403C172.483 234.068 168.285 227.425 164.309 220.557C160.343 213.707 156.694 206.799 153.387 199.93C156.693 193.046 160.334 186.13 164.277 179.293L164.276 179.294C168.229 172.439 172.39 165.828 176.689 159.533C184.302 158.957 192.11 158.657 200 158.657C207.925 158.657 215.743 158.96 223.354 159.54C227.587 165.789 231.72 172.378 235.689 179.235C239.703 186.169 243.39 193.038 246.725 199.775C243.4 206.628 239.721 213.567 235.725 220.497ZM258.285 98.3729C266.857 103.317 270.191 123.254 264.805 149.399C264.461 151.067 264.075 152.766 263.654 154.488C253.033 152.037 241.5 150.214 229.425 149.081C222.391 139.064 215.102 129.957 207.785 122.073C209.752 120.181 211.716 118.376 213.673 116.673C232.572 100.226 250.237 93.7319 258.285 98.3729ZM200 176.808C212.625 176.808 222.86 187.043 222.86 199.668C222.86 212.293 212.625 222.528 200 222.528C187.375 222.528 177.14 212.293 177.14 199.668C177.14 187.043 187.375 176.808 200 176.808Z" fill="#00D8FF"/>
</svg>
