<svg width="400" height="400" viewBox="0 0 400 400" fill="none" xmlns="http://www.w3.org/2000/svg">
<rect width="400" height="400" fill="black"/>
<rect x="5" y="5" width="390" height="390" fill="white"/>
<g clip-path="url(#clip0_59_232)">
<path d="M201.741 320.648C229.741 220.539 228.928 220.085 249.165 148.706L254.029 151.522C256.678 153.038 258.842 151.79 258.842 148.744V114.696C264.218 95.8928 268.416 81.352 269.658 77H291.578L328 110.728L304.077 131.4L322.17 150.965L202.944 320.648C202.368 321.608 201.555 321.39 201.741 320.648ZM214.765 104.866C215.853 104.866 216.723 105.461 216.723 106.21V123.65C216.723 124.379 215.846 124.974 214.765 124.974H185.325C184.237 124.974 183.36 124.379 183.36 123.643V106.197C183.36 105.461 184.237 104.853 185.318 104.853H214.758L214.765 104.866ZM251.117 85.5504L218.72 104.251C219.091 104.827 219.322 105.486 219.322 106.203V123.656C219.322 124.552 218.963 125.371 218.387 126.024L251.11 144.917C253.338 146.21 255.168 145.154 255.168 142.581V87.8928C255.168 85.3136 253.35 84.264 251.117 85.5504ZM180.755 123.656V106.197C180.755 105.48 180.986 104.821 181.357 104.251L148.96 85.5376C146.733 84.2576 144.902 85.3072 144.902 87.88V142.568C144.902 145.141 146.733 146.197 148.966 144.904L181.683 126.011C181.107 125.352 180.762 124.539 180.762 123.643L180.755 123.656ZM197.056 320.648H198.259C170.266 220.539 171.072 220.085 150.835 148.706L145.971 151.522C143.328 153.038 141.158 151.79 141.158 148.744V114.696C135.782 95.8992 131.584 81.352 130.342 77H108.429L72 110.728L95.9168 131.4L77.824 150.971L197.056 320.648ZM199.11 161.41C203.995 161.41 207.955 157.45 207.955 152.565C207.955 147.68 203.995 143.72 199.11 143.72C194.226 143.72 190.266 147.68 190.266 152.565C190.266 157.45 194.226 161.41 199.11 161.41ZM199.11 213.986C203.995 213.986 207.955 210.026 207.955 205.141C207.955 200.256 203.995 196.296 199.11 196.296C194.226 196.296 190.266 200.256 190.266 205.141C190.266 210.026 194.226 213.986 199.11 213.986ZM199.11 266.574C203.995 266.574 207.955 262.614 207.955 257.73C207.955 252.845 203.995 248.885 199.11 248.885C194.226 248.885 190.266 252.845 190.266 257.73C190.266 262.614 194.226 266.574 199.11 266.574Z" fill="black"/>
</g>
<defs>
<clipPath id="clip0_59_232">
<rect width="256" height="245" fill="white" transform="translate(72 77)"/>
</clipPath>
</defs>
</svg>
