<svg width="400" height="400" viewBox="0 0 400 400" fill="none" xmlns="http://www.w3.org/2000/svg">
<rect width="400" height="400" fill="black"/>
<rect x="5" y="5" width="390" height="390" fill="white"/>
<path d="M267.174 91.0219C303.676 113.57 328 153.944 328 200C328 270.692 270.692 328 200 328C184.584 328 169.805 325.275 156.121 320.276L154.659 319.731L157.04 318.967L160.1 317.963L161.61 317.459L163.106 316.953L166.058 315.936L168.955 314.913L171.799 313.882L174.589 312.845L175.964 312.324L178.672 311.277C181.533 310.156 184.301 309.023 186.978 307.878L188.967 307.016L191.406 305.933C192.478 305.45 193.534 304.965 194.574 304.478L196.122 303.746L198.4 302.641L199.518 302.085L200.623 301.528L202.792 300.408C221.003 290.855 233.377 280.478 239.946 269.1C253.864 244.992 241.708 219.23 206.813 192.966L203.973 190.837L202.248 189.514L200.574 188.201L198.949 186.899L197.374 185.606L196.605 184.963L195.849 184.323L194.373 183.05L193.299 182.101L192.252 181.159L190.899 179.91L189.596 178.671L188.341 177.442L187.731 176.831L187.134 176.223L185.976 175.013C172.182 160.349 169.102 147.795 175.364 136.948C178.552 131.428 184.078 126 191.932 120.714L192.886 120.08L194.388 119.114C195.067 118.685 195.762 118.257 196.472 117.83L197.549 117.191L199.207 116.235L200.918 115.282L202.236 114.569L203.583 113.859L205.424 112.915C206.825 112.209 208.27 111.505 209.758 110.805L211.262 110.106L213.312 109.178L214.357 108.715L216.485 107.792L217.569 107.333L219.775 106.416L220.898 105.96L223.183 105.049L224.344 104.596L226.707 103.692L229.122 102.793L230.349 102.345L232.842 101.453L235.387 100.565L237.984 99.6815L239.301 99.2416L241.976 98.3653L244.703 97.4939L247.482 96.6273L250.313 95.7656L253.196 94.9089L256.872 93.8452L260.629 92.7895L265.245 91.5334L267.174 91.0219ZM200 72C215.566 72 230.483 74.7786 244.282 79.8668L245.756 80.4208L244.822 80.7037L240.263 82.1091L238.77 82.5812L235.824 83.5308L232.933 84.4879L230.095 85.4524L227.31 86.4245L224.579 87.4042L223.234 87.8969L219.93 89.1371L216.709 90.3894L214.193 91.4002L212.955 91.9085L210.519 92.9312C185.625 103.54 169.31 115.435 161.508 128.948C147.891 152.534 160.242 177.959 195.141 204.216L197.98 206.346L199.705 207.669L201.379 208.984L202.197 209.637L203.795 210.937L204.961 211.906L206.099 212.87L207.572 214.147L208.29 214.782L209.689 216.045C210.453 216.744 211.193 217.439 211.911 218.13L212.97 219.163L214.496 220.701L215.945 222.225C229.681 236.991 232.616 249.795 226.089 261.1C221.866 268.415 213.803 275.616 201.918 282.607L200.827 283.241L199.059 284.243L197.238 285.242C196.212 285.796 195.161 286.348 194.086 286.899L192.456 287.725L190.451 288.712L188.393 289.697L186.283 290.678L185.208 291.167L183.019 292.143L180.778 293.115L178.484 294.084L177.317 294.567L174.944 295.53L173.738 296.01L172.519 296.49L170.041 297.445L167.511 298.397L164.928 299.345L162.293 300.289L159.605 301.229L158.242 301.698L155.476 302.631L154.073 303.096L151.228 304.024L148.331 304.947L144.636 306.094L140.859 307.235L137.779 308.143L133.479 309.379C96.6144 286.911 72 246.33 72 200C72 129.308 129.308 72 200 72Z" fill="#0080FF"/>
</svg>
