<svg width="400" height="400" viewBox="0 0 400 400" fill="none" xmlns="http://www.w3.org/2000/svg">
<rect width="400" height="400" fill="black"/>
<rect x="5" y="5" width="390" height="390" fill="white"/>
<g clip-path="url(#clip0_59_212)">
<path d="M200 123C165.867 123 144.533 140.067 136 174.2C148.8 157.133 163.733 150.733 180.8 155C190.537 157.434 197.497 164.499 205.201 172.318C217.751 185.057 232.275 199.8 264 199.8C298.133 199.8 319.467 182.733 328 148.6C315.2 165.667 300.267 172.067 283.2 167.8C273.463 165.366 266.503 158.301 258.799 150.482C246.249 137.743 231.725 123 200 123ZM136 199.8C101.867 199.8 80.5333 216.867 72 251C84.8 233.933 99.7333 227.533 116.8 231.8C126.537 234.234 133.497 241.299 141.201 249.118C153.751 261.857 168.275 276.6 200 276.6C234.133 276.6 255.467 259.533 264 225.4C251.2 242.467 236.267 248.867 219.2 244.6C209.463 242.166 202.503 235.101 194.799 227.282C182.249 214.543 167.725 199.8 136 199.8Z" fill="url(#paint0_linear_59_212)"/>
</g>
<defs>
<linearGradient id="paint0_linear_59_212" x1="-639.111" y1="5038.2" x2="21470.7" y2="17786.2" gradientUnits="userSpaceOnUse">
<stop offset="0.9999" stop-color="#2298BD"/>
<stop offset="1" stop-color="#0ED7B5"/>
</linearGradient>
<clipPath id="clip0_59_212">
<rect width="256" height="154" fill="white" transform="translate(72 123)"/>
</clipPath>
</defs>
</svg>
