<svg width="400" height="400" viewBox="0 0 400 400" fill="none" xmlns="http://www.w3.org/2000/svg">
<rect width="400" height="400" fill="black"/>
<rect x="5" y="5" width="390" height="390" fill="white"/>
<g clip-path="url(#clip0_59_226)">
<path d="M72.0871 73.5849C71.5541 71.4273 73.5552 69.5012 75.6909 70.1161L137.92 88.0321C138.477 88.0301 139.028 88.1888 139.499 88.4869L262.229 123.821C262.737 123.832 263.238 123.976 263.675 124.237L325.909 142.155C328.047 142.771 328.716 145.471 327.112 147.013L139.312 327.662C137.709 329.204 135.038 328.432 134.505 326.273L103.353 200.159C103.311 200.029 103.278 199.897 103.255 199.763L72.0871 73.5849ZM125.393 265.295L138.913 320.028L179.627 280.863L125.393 265.295ZM167.331 222.011L127.912 260.006L180.424 275.082L167.331 222.011ZM173.182 221.605L186.234 274.508L225.545 236.694L173.182 221.605ZM110.112 203.431L123.221 256.504L162.593 218.554L110.112 203.431ZM213.816 177.153L173.765 215.759L227.138 231.14L213.816 177.153ZM219.428 175.78L232.75 229.764L272.911 191.133L219.428 175.78ZM151.847 159.239L111.71 197.879L165.181 213.286L151.847 159.239ZM157.438 157.782L170.531 210.851L209.95 172.856L157.438 157.782ZM94.384 139.759L107.71 193.71L147.818 155.098L94.384 139.759ZM260.576 132.269L221.157 170.264L273.669 185.34L260.576 132.269ZM266.209 130.979L279.489 184.805L319.497 146.321L266.209 130.979ZM198.35 114.473L159.108 152.25L211.373 167.253L198.35 114.473ZM203.95 113.054L217.062 166.188L256.492 128.181L203.95 113.054ZM136.338 96.4801L96.9191 134.476L149.431 149.551L136.338 96.4801ZM141.976 95.211L155.037 148.148L194.36 110.293L141.976 95.211ZM78.8942 77.0496L92.217 130.985L132.239 92.408L78.8942 77.0496Z" fill="black"/>
</g>
<defs>
<clipPath id="clip0_59_226">
<rect width="256" height="259" fill="white" transform="translate(72 70)"/>
</clipPath>
</defs>
</svg>
