<svg width="400" height="400" viewBox="0 0 400 400" fill="none" xmlns="http://www.w3.org/2000/svg">
<rect width="400" height="400" fill="black"/>
<rect x="5" y="5" width="390" height="390" fill="white"/>
<g clip-path="url(#clip0_59_214)">
<path d="M97 72H313C324.046 72 333 80.9543 333 92V308C333 319.046 324.046 328 313 328H97C85.9543 328 77 319.046 77 308V92C77 80.9543 85.9543 72 97 72Z" fill="#3178C6"/>
<path d="M227.518 272.475V300.095C232.01 302.397 237.323 304.123 243.456 305.274C249.589 306.425 256.053 307 262.849 307C269.471 307 275.763 306.367 281.723 305.101C287.683 303.835 292.91 301.749 297.401 298.844C301.893 295.938 305.449 292.14 308.07 287.45C310.69 282.761 312 276.964 312 270.059C312 265.053 311.251 260.665 309.754 256.896C308.257 253.127 306.097 249.775 303.275 246.841C300.454 243.906 297.07 241.274 293.126 238.943C289.181 236.613 284.732 234.412 279.779 232.341C276.151 230.844 272.898 229.392 270.018 227.982C267.139 226.572 264.691 225.134 262.676 223.666C260.66 222.199 259.105 220.645 258.011 219.005C256.917 217.365 256.37 215.51 256.37 213.438C256.37 211.539 256.859 209.828 257.838 208.303C258.817 206.778 260.2 205.469 261.985 204.376C263.77 203.282 265.958 202.434 268.55 201.829C271.141 201.225 274.021 200.923 277.188 200.923C279.492 200.923 281.925 201.096 284.487 201.441C287.05 201.786 289.627 202.318 292.219 203.038C294.81 203.757 297.329 204.663 299.777 205.757C302.224 206.85 304.485 208.116 306.558 209.554V183.747C302.354 182.136 297.761 180.942 292.78 180.165C287.799 179.388 282.083 179 275.633 179C269.068 179 262.849 179.705 256.975 181.115C251.101 182.524 245.932 184.725 241.469 187.717C237.006 190.71 233.479 194.522 230.887 199.154C228.296 203.786 227 209.324 227 215.769C227 223.997 229.375 231.017 234.127 236.829C238.878 242.64 246.09 247.56 255.765 251.588C259.566 253.142 263.108 254.666 266.39 256.163C269.673 257.659 272.509 259.212 274.899 260.823C277.289 262.434 279.175 264.189 280.557 266.088C281.939 267.987 282.63 270.145 282.63 272.562C282.63 274.345 282.198 276 281.334 277.525C280.471 279.049 279.16 280.373 277.404 281.495C275.648 282.617 273.459 283.494 270.839 284.127C268.219 284.76 265.152 285.077 261.639 285.077C255.65 285.077 249.719 284.027 243.845 281.926C237.97 279.826 232.528 276.676 227.518 272.475ZM181.482 203.742H217V181H118V203.742H153.345V305H181.482V203.742Z" fill="white"/>
</g>
<defs>
<clipPath id="clip0_59_214">
<rect width="256" height="256" fill="white" transform="translate(77 72)"/>
</clipPath>
</defs>
</svg>
